<svg width="49" height="34" viewBox="0 0 49 34" fill="none" xmlns="http://www.w3.org/2000/svg">
<path d="M27.7352 8.02093C28.5819 7.17075 29.108 5.99653 29.108 4.70036C29.108 2.10454 27.0035 0 24.4077 0C22.7666 0 21.324 0.843208 20.4843 2.11847C20.2613 2.34147 1.55046 25.4043 1.37624 25.6691C0.529552 26.5192 0.00341797 27.6935 0.00341797 28.9896C0.00341797 31.5855 2.10795 33.69 4.70378 33.69C6.3449 33.69 7.78741 32.8468 8.62714 31.5715C8.85014 31.3485 27.561 8.28574 27.7352 8.02093Z" fill="#60A5FA"/>
<path d="M38.5608 18.9617C39.411 18.1116 39.9371 16.9373 39.9371 15.6377C39.9371 13.0419 37.8326 10.9373 35.2368 10.9373C33.5956 10.9373 32.1531 11.7805 31.3099 13.0558C31.0834 13.2823 21.2576 25.3938 21.0799 25.6621C20.2297 26.5123 19.7036 27.6865 19.7036 28.9862C19.7036 31.582 21.8082 33.6865 24.404 33.6865C26.0451 33.6865 27.4876 32.8433 28.3308 31.568C28.5573 31.3416 38.3831 19.23 38.5608 18.9617V18.9617Z" fill="#3F3F46"/>
<path d="M48.8158 4.70036C48.8158 7.29619 46.7112 9.40073 44.1154 9.40073C41.5196 9.40073 39.415 7.29619 39.415 4.70036C39.415 2.10454 41.5196 0 44.1154 0C46.7112 0 48.8158 2.10454 48.8158 4.70036Z" fill="#60A5FA"/>
<path d="M9.40073 4.70036C9.40073 7.29619 7.29619 9.40073 4.70036 9.40073C2.10454 9.40073 0 7.29619 0 4.70036C0 2.10454 2.10454 0 4.70036 0C7.29619 0 9.40073 2.10454 9.40073 4.70036Z" fill="#3F3F46"/>
</svg>
